#tb 0: 1/5
#media_type 0: video
#codec_id 0: rawvideo
#dimensions 0: 128x96
#sar 0: 1/1
0,          0,          0,        1,    18432, 0x4c1a4c73
0,          1,          1,        1,    18432, 0x3b884c72
0,          2,          2,        1,    18432, 0xb3b74c6f
0,          3,          3,        1,    18432, 0x90724c95
0,          4,          4,        1,    18432, 0xa4cf4c7b
0,          5,          5,        1,    18432, 0x38bb663e
0,          6,          6,        1,    18432, 0xb4a1677c
0,          7,          7,        1,    18432, 0xbc6f62c1
0,          8,          8,        1,    18432, 0x42995c42
0,          9,          9,        1,    18432, 0x0c3f5590
